# AST/ASF file generated using VICON BodyLanguage
# -----------------------------------------------
:version 1.10
:name VICON
:units
  mass 1.0
  length 0.45
  angle deg
:documentation
   .ast/.asf automatically generated from VICON data using
   VICON BodyBuilder and BodyLanguage model FoxedUp or BRILLIANT.MOD
:root
   order TX TY TZ RX RY RZ
   axis XYZ
   position 0 0 0  
   orientation 0 0 0 
:bonedata
  begin
     id 1 
     name lhipjoint
     direction 0.589753 -0.68606 0.426044 
     length 2.54082 
     axis 0 0 0  XYZ
  end
  begin
     id 2 
     name lfemur
     direction 0.34202 -0.939693 0  
     length 7.04539  
     axis 0 0 20  XYZ
    dof rx ry rz
    limits (-160.0 20.0)
           (-70.0 70.0)
           (-60.0 70.0)
  end
  begin
     id 3 
     name ltibia
     direction 0.34202 -0.939693 0   
     length 7.83772   
     axis 0 0 20   XYZ
    dof rx
    limits (-10.0 170.0)
  end
  begin
     id 4 
     name lfoot
     direction 0.0596604 -0.163915 0.984669   
     length 2.39542   
     axis -90 7.62852e-016 20   XYZ
    dof rx rz
    limits (-45.0 90.0)
           (-70.0 20.0)
  end
  begin
     id 5 
     name ltoes
     direction 1.53514e-011 -4.21954e-011 1   
     length 1.2047   
     axis -90 7.62852e-016 20   XYZ
    dof rx
    limits (-90.0 20.0)
  end
  begin
     id 6 
     name rhipjoint
     direction -0.580585 -0.69168 0.429534   
     length 2.52018  
     axis 0 0 0  XYZ 
  end
  begin
     id 7 
     name rfemur
     direction -0.34202 -0.939693 0   
     length 7.0101   
     axis 0 0 -20   XYZ
    dof rx ry rz
    limits (-160.0 20.0)
           (-70.0 70.0)
           (-70.0 60.0)
  end
  begin
     id 8 
     name rtibia
     direction -0.34202 -0.939693 0   
     length 7.70628   
     axis 0 0 -20   XYZ
    dof rx
    limits (-10.0 170.0)
 end
 begin
     id 9 
     name rfoot
     direction -0.0696237 -0.19129 0.979061   
     length 2.52466  
     axis -90 -7.62852e-016 -20   XYZ
    dof rx rz
    limits (-45.0 90.0)
           (-20.0 70.0)
  end
  begin
     id 10 
     name rtoes
     direction -1.53519e-011 -4.21793e-011 1   
     length 1.266   
     axis -90 -7.62852e-016 -20   XYZ
    dof rx
    limits (-90.0 20.0)
  end
  begin
     id 11 
     name lowerback
     direction 0.00381965 0.995707 -0.0924856   
     length 2.20825   
     axis 0 0 0   XYZ
    dof rx ry rz
    limits (-20.0 45.0)
           (-30.0 30.0)
           (-30.0 30.0)
  end
  begin
     id 12 
     name upperback
     direction -0.0139043 0.999634 -0.0231929   
     length 2.21517   
     axis 0 0 0   XYZ
    dof rx ry rz
    limits (-20.0 45.0)
           (-30.0 30.0)
           (-30.0 30.0)
  end
  begin
     id 13 
     name thorax
     direction -0.0143933 0.999691 0.0202892   
     length 2.22911   
     axis 0 0 0   XYZ
    dof rx ry rz
    limits (-20.0 45.0)
           (-30.0 30.0)
           (-30.0 30.0)
  end
  begin
     id 14 
     name lowerneck
     direction -0.0251153 0.981819 0.188153   
     length 1.61782   
     axis 0 0 0   XYZ
    dof rx ry rz
    limits (-20.0 45.0)
           (-30.0 30.0)
           (-30.0 30.0)
  end
  begin
     id 15 
     name upperneck
     direction 0.0563891 0.969357 -0.239095   
     length 1.64526   
     axis 0 0 0   XYZ
    dof rx ry rz
    limits (-20.0 45.0)
           (-30.0 30.0)
           (-30.0 30.0)
  end
  begin
     id 16
     name head
     direction 0.0208328 0.99459 -0.101773  
     length 1.67436  
     axis 0 0 0   XYZ
    dof rx ry rz
    limits (-20.0 45.0)
           (-30.0 30.0)
           (-30.0 30.0)
  end
  begin
     id 17 
     name lclavicle
     direction 0.917689 0.397224 0.00772059  
     length 3.31102  
     axis 0 0 0   XYZ
    dof ry rz
    limits (-20.0 10.0)
           (0.0 20.0)
  end
  begin
     id 18 
     name lhumerus
     direction 1 -4.4896e-011 2.32308e-027   
     length 5.25537   
     axis 180 -30 -90   XYZ
    dof rx ry rz
    limits (-60.0 90.0)
           (-90.0 90.0)
           (-90.0 90.0)
  end
  begin
     id 19
     name lradius
     direction 1 -4.49005e-011 -2.04271e-027   
     length 3.38855   
     axis 180 -30 -90   XYZ
    dof rx
    limits (-10.0 170.0)
  end
  begin
     id 20
     name lwrist
     direction 1 -4.48892e-011 2.56952e-028   
     length 1.69428   
     axis -5.12785e-016 90 90   XYZ
    dof ry
    limits (-180.0 0.0)
 end
  begin
     id 21 
     name lhand
     direction 1 -4.48966e-011 5.13905e-028   
     length 0.614516   
     axis -3.27915e-016 90 90   XYZ
    dof rx rz
    limits (-90.0 90.0)
           (-45.0 45.0)
  end
  begin
     id 22 
     name lfingers
     direction 1 -4.48979e-011 1.02781e-027   
     length 0.495439   
     axis -6.5583e-016 90 90   XYZ
    dof rx
    limits (0.0 90.0)
  end
  begin
     id 23
     name lthumb
     direction 0.707107 -6.35001e-011 0.707107   
     length 0.711354   
     axis -90 45 2.85299e-015   XYZ
    dof rx rz
    limits (-45.0 45.0)
           (-45.0 45.0)
  end
  begin
     id 24 
     name rclavicle
     direction -0.938556 0.342765 -0.0403177   
     length 3.27019  
     axis 0 0 0   XYZ 
    dof ry rz
    limits (-10.0 20.0)
           (-20.0 0.0)
  end
  begin
     id 25 
     name rhumerus
     direction -1 -4.48966e-011 2.52291e-027  
     length 5.38183   
     axis 180 30 90   XYZ
    dof rx ry rz
    limits (-90.0 60.0)
           (-90.0 90.0)
           (-90.0 90.0)
  end
  begin
     id 26 
     name rradius
     direction -1 -4.4896e-011 1.5797e-027   
     length 3.16988   
     axis 180 30 90   XYZ
    dof rx
    limits (-10.0 170.0)
  end
  begin
     id 27 
     name rwrist
     direction -1 -4.48947e-011 2.56952e-028   
     length 1.58494   
     axis -5.12785e-016 -90 -90   XYZ
    dof ry
    limits (-180.0 0.0)
  end
  begin
     id 28
     name rhand
     direction -1 -4.49098e-011 5.13905e-028   
     length 0.637679   
     axis -3.27915e-016 -90 -90   XYZ
    dof rx rz
    limits (-90.0 90.0)
           (-45.0 45.0)
  end
  begin
     id 29
     name rfingers
     direction -1 -4.49026e-011 1.02781e-027   
     length 0.514113   
     axis -6.5583e-016 -90 -90   XYZ
    dof rx
    limits (0.0 90.0)
  end
  begin
     id 30
     name rthumb
     direction -0.707107 -6.3491e-011 0.707107   
     length 0.738167   
     axis -90 -45 -2.85299e-015   XYZ
    dof rx rz
    limits (-45.0 45.0)
           (-45.0 45.0)
  end
:hierarchy
  begin
    root lhipjoint rhipjoint lowerback
    lhipjoint lfemur
    lfemur ltibia
    ltibia lfoot
    lfoot ltoes
    rhipjoint rfemur
    rfemur rtibia
    rtibia rfoot
    rfoot rtoes
    lowerback upperback
    upperback thorax
    thorax lowerneck lclavicle rclavicle
    lowerneck upperneck
    upperneck head
    lclavicle lhumerus
    lhumerus lradius
    lradius lwrist
    lwrist lhand lthumb
    lhand lfingers
    rclavicle rhumerus
    rhumerus rradius
    rradius rwrist
    rwrist rhand rthumb
    rhand rfingers
  end

#!OML:ASF H:\Swim\Project 1\Capture day 1\Session 1\swimmer.ASF
:FULLY-SPECIFIED
:DEGREES
1679
root 6.01648 11.5343 20.8503 81.4659 -6.06206 -7.40929
lowerback 3.23135 -6.94189 -9.41301
upperback -5.90146 -10.2059 -0.98
thorax -6.62885 -4.61441 4.92768
lowerneck -13.7643 3.33907 -10.9886
upperneck 6.31161 4.9732 17.4683
head 3.40939 3.18687 7.63267
rclavicle 4.45278e-014 9.54166e-015
rhumerus 312.121 17.2691 330.892
rradius 124.076
rwrist -1.0607
rhand -0.112475 15.2318
rfingers 7.12502
rthumb 25.4826 -373.084
lclavicle 4.45278e-014 9.54166e-015
lhumerus 56.7111 9.82613 5.41264
lradius 22.9754
lwrist -15.6188
lhand -9.76407 -705.139
lfingers 7.12502
lthumb 16.2108 44.203
rfemur -15.7251 3.56541 20.0013
rtibia 39.417
rfoot -2.14852 1.95159
rtoes -7.38358
lfemur -10.6962 -4.94638 -22.29
ltibia 33.265
lfoot -7.27077 14.2367
ltoes 3.93528
1680
root 6.01937 11.534 20.8468 81.459 -6.04137 -7.41566
lowerback 3.23796 -7.03927 -9.48624
upperback -5.90786 -10.3382 -0.889445
thorax -6.59254 -4.67613 5.06446
lowerneck -13.7813 3.49428 -10.9534
upperneck 6.46323 5.17374 17.3637
head 3.42938 3.28391 7.60502
rclavicle -6.36111e-015 -1.90833e-014
rhumerus 312.508 16.9538 331.298
rradius 124.869
rwrist -1.07208
rhand -0.0760006 15.1857
rfingers 7.12502
rthumb 25.5176 -373.126
lclavicle -6.36111e-015 -1.90833e-014
lhumerus 55.9102 9.58356 5.21528
lradius 23.1278
lwrist -15.3214
lhand -10.0626 -705.049
lfingers 7.12502
lthumb 15.9234 44.3161
rfemur -15.7316 3.56362 20.046
rtibia 39.4252
rfoot -2.04097 2.10948
rtoes -7.06554
lfemur -10.6955 -5.13156 -22.2785
ltibia 33.2752
lfoot -7.42657 14.3926
ltoes 4.35002
1681
root 6.02242 11.5341 20.8439 81.4422 -6.00448 -7.41254
lowerback 3.25954 -7.14418 -9.54283
upperback -5.91257 -10.4803 -0.785339
thorax -6.56079 -4.74311 5.20864
lowerneck -13.8429 3.65546 -10.9365
upperneck 6.63208 5.38525 17.2926
head 3.45926 3.38961 7.59445
rclavicle 3.18055e-015 -1.27222e-014
rhumerus 312.909 16.6676 331.747
rradius 125.697
rwrist -1.16739
rhand -0.113716 15.1367
rfingers 7.12502
rthumb 25.4814 -373.18
lclavicle 3.18055e-015 -1.27222e-014
lhumerus 55.0236 9.3329 5.05307
lradius 23.3284
lwrist -14.9487
lhand -10.3326 -704.947
lfingers 7.12502
lthumb 15.6633 44.4389
rfemur -15.7242 3.56778 20.1054
rtibia 39.4317
rfoot -1.92448 2.26418
rtoes -6.85456
lfemur -10.6858 -5.34723 -22.2532
ltibia 33.2843
lfoot -7.60196 14.5613
ltoes 4.71236
1682
root 6.02542 11.5343 20.8417 81.4177 -5.95788 -7.4036
lowerback 3.29078 -7.2596 -9.59286
upperback -5.91678 -10.6368 -0.673756
thorax -6.53069 -4.81742 5.35867
lowerneck -13.9174 3.83434 -10.9152
upperneck 6.79437 5.62012 17.2514
head 3.4855 3.50887 7.59428
rclavicle 1.49486e-013 4.13472e-014
rhumerus 313.326 16.4051 332.234
rradius 126.558
rwrist -1.38452
rhand -0.162782 15.0717
rfingers 7.12502
rthumb 25.4344 -373.251
lclavicle 1.49486e-013 4.13472e-014
lhumerus 54.065 9.04596 4.88432
lradius 23.5406
lwrist -14.514
lhand -10.6163 -704.801
lfingers 7.12502
lthumb 15.3901 44.606
rfemur -15.705 3.58538 20.174
rtibia 39.4395
rfoot -1.79883 2.41449
rtoes -6.71854
lfemur -10.6659 -5.58627 -22.2187
ltibia 33.289
lfoot -7.79738 14.7362
ltoes 5.03881
1683
root 6.02814 11.5346 20.8404 81.3955 -5.90889 -7.3991
lowerback 3.32418 -7.37942 -9.64059
upperback -5.92551 -10.7996 -0.556097
thorax -6.50414 -4.89463 5.51442
lowerneck -13.9934 4.02506 -10.9027
upperneck 6.94267 5.87247 17.2414
head 3.5043 3.63805 7.60622
rclavicle 4.77083e-014 1.11319e-014
rhumerus 313.75 16.1539 332.775
rradius 127.445
rwrist -1.73928
rhand -0.222557 14.9964
rfingers 7.12502
rthumb 25.3772 -373.335
lclavicle 4.77083e-014 1.11319e-014
lhumerus 53.0602 8.70039 4.69956
lradius 23.7352
lwrist -14.0171
lhand -10.9286 -704.593
lfingers 7.12502
lthumb 15.0893 44.8365
rfemur -15.6878 3.61667 20.2448
rtibia 39.4528
rfoot -1.665 2.56847
rtoes -6.66185
lfemur -10.6425 -5.83771 -22.1801
ltibia 33.2855
lfoot -8.00085 14.9202
ltoes 5.32155
1684
root 6.03071 11.5347 20.84 81.3766 -5.86115 -7.39988
lowerback 3.35575 -7.5029 -9.68239
upperback -5.9393 -10.9674 -0.436912
thorax -6.48104 -4.97441 5.66873
lowerneck -14.0482 4.23209 -10.8808
upperneck 7.07237 6.14718 17.2183
head 3.51146 3.77662 7.61132
rclavicle 1.90833e-014 -4.77083e-015
rhumerus 314.184 15.8991 333.378
rradius 128.348
rwrist -2.25885
rhand -0.267533 14.9035
rfingers 7.12502
rthumb 25.3341 -373.434
lclavicle 1.90833e-014 -4.77083e-015
lhumerus 52.0326 8.28709 4.5012
lradius 23.8807
lwrist -13.4903
lhand -11.2719 -704.341
lfingers 7.12502
lthumb 14.7585 45.1131
rfemur -15.6758 3.63692 20.3112
rtibia 39.4742
rfoot -1.51774 2.7488
rtoes -6.68557
lfemur -10.6128 -6.09742 -22.1428
ltibia 33.2706
lfoot -8.21444 15.1102
ltoes 5.55642
1685
root 6.03302 11.5345 20.8402 81.3601 -5.82849 -7.40751
lowerback 3.38997 -7.62917 -9.73628
upperback -5.95988 -11.1411 -0.320396
thorax -6.46358 -5.05613 5.82752
lowerneck -14.0766 4.44847 -10.8423
upperneck 7.18749 6.43311 17.171
head 3.50969 3.91849 7.60417
rclavicle 1.39944e-013 1.74931e-014
rhumerus 314.641 15.6181 334.065
rradius 129.266
rwrist -2.92274
rhand -0.217393 14.7735
rfingers 7.12502
rthumb 25.3821 -373.557
lclavicle 1.39944e-013 1.74931e-014
lhumerus 50.9962 7.79274 4.26596
lradius 23.9489
lwrist -13.0003
lhand -11.6291 -704.054
lfingers 7.12502
lthumb 14.4144 45.4252
rfemur -15.6697 3.64819 20.3586
rtibia 39.5051
rfoot -1.35438 2.95168
rtoes -6.74017
lfemur -10.5738 -6.36301 -22.121
ltibia 33.2417
lfoot -8.43744 15.3046
ltoes 5.78387
1686
root 6.03509 11.5342 20.8411 81.3532 -5.80202 -7.42647
lowerback 3.42129 -7.75678 -9.79189
upperback -5.98438 -11.3165 -0.198012
thorax -6.44595 -5.13857 5.99289
lowerneck -14.1104 4.66035 -10.813
upperneck 7.30361 6.71645 17.1052
head 3.51003 4.05791 7.59251
rclavicle 2.8625e-014 7.95139e-015
rhumerus 315.154 15.2666 334.87
rradius 130.194
rwrist -3.72063
rhand 0.00104482 14.5885
rfingers 7.12502
rthumb 25.5914 -373.712
lclavicle 2.8625e-014 7.95139e-015
lhumerus 49.9546 7.22281 4.00184
lradius 23.9379
lwrist -12.5639
lhand -11.9902 -703.731
lfingers 7.12502
lthumb 14.0664 45.7727
rfemur -15.6776 3.65914 20.3985
rtibia 39.5448
rfoot -1.18339 3.16531
rtoes -6.84213
lfemur -10.5334 -6.62434 -22.103
ltibia 33.1997
lfoot -8.66249 15.4978
ltoes 6.00567
1687
root 6.03685 11.5338 20.8427 81.3602 -5.78241 -7.4611
lowerback 3.44876 -7.88833 -9.85674
upperback -6.01394 -11.4973 -0.0616381
thorax -6.42521 -5.22313 6.17701
lowerneck -14.1617 4.86782 -10.8093
upperneck 7.43323 6.99975 17.0248
head 3.51707 4.19646 7.5815
rclavicle 6.04305e-014 3.02153e-014
rhumerus 315.762 14.8222 335.822
rradius 131.127
rwrist -4.63843
rhand 0.437296 14.3224
rfingers 7.12502
rthumb 26.0092 -373.918
lclavicle 6.04305e-014 3.02153e-014
lhumerus 48.8069 6.48048 3.50141
lradius 23.9595
lwrist -11.982
lhand -12.2934 -703.349
lfingers 7.12502
lthumb 13.7743 46.1755
rfemur -15.7055 3.67878 20.4321
rtibia 39.5929
rfoot -1.01088 3.38074
rtoes -6.99301
lfemur -10.4949 -6.88243 -22.0884
ltibia 33.1446
lfoot -8.89682 15.6919
ltoes 6.25082
1688
root 6.03852 11.5334 20.8446 81.3676 -5.76567 -7.50153
lowerback 3.48868 -8.03044 -9.93593
upperback -6.04543 -11.6938 0.0960249
thorax -6.40284 -5.31441 6.39254
lowerneck -14.2353 5.07367 -10.8545
upperneck 7.56881 7.28964 16.9707
head 3.52595 4.33919 7.58874
rclavicle -1.90833e-014 -1.11319e-014
rhumerus 316.501 14.2644 336.933
rradius 132.054
rwrist -5.69452
rhand 1.10119 13.9654
rfingers 7.12502
rthumb 26.6447 -374.18
lclavicle -1.90833e-014 -1.11319e-014
lhumerus 47.578 5.64559 2.92204
lradius 23.983
lwrist -11.4377
lhand -12.4893 -702.982
lfingers 7.12502
lthumb 13.5854 46.5543
rfemur -15.7372 3.71118 20.4634
rtibia 39.6475
rfoot -0.84484 3.5798
rtoes -7.15936
lfemur -10.4479 -7.14379 -22.0769
ltibia 33.0805
lfoot -9.13176 15.8848
ltoes 6.54826
1689
root 6.04017 11.5332 20.8468 81.3695 -5.7632 -7.54175
lowerback 3.55082 -8.18451 -10.0466
upperback -6.08044 -11.9103 0.276955
thorax -6.38138 -5.41336 6.65221
lowerneck -14.3161 5.28647 -10.9844
upperneck 7.70005 7.60259 16.9745
head 3.52557 4.49436 7.6297
rclavicle -3.18055e-014 -7.95139e-015
rhumerus 317.388 13.5858 338.209
rradius 132.961
rwrist -6.9327
rhand 1.95324 13.5148
rfingers 7.12502
rthumb 27.4599 -374.503
lclavicle -3.18055e-014 -7.95139e-015
lhumerus 46.2838 4.8183 2.43614
lradius 23.9967
lwrist -11.0593
lhand -12.5234 -702.736
lfingers 7.12502
lthumb 13.5526 46.8025
rfemur -15.7689 3.75707 20.4794
rtibia 39.7096
rfoot -0.695478 3.75047
rtoes -7.3506
lfemur -10.3872 -7.40905 -22.0833
ltibia 33.0074
lfoot -9.35394 16.078
ltoes 6.86801
1690
root 6.04221 11.5332 20.8484 81.3448 -5.76795 -7.56494
lowerback 3.65435 -8.35728 -10.1852
upperback -6.11645 -12.1579 0.480322
thorax -6.36699 -5.52518 6.95674
lowerneck -14.3804 5.51841 -11.1853
upperneck 7.82136 7.95235 17.0279
head 3.50837 4.66766 7.69794
rclavicle 1.59028e-014 -1.90833e-014
rhumerus 318.429 12.7823 339.629
rradius 133.832
rwrist -8.36767
rhand 2.95759 12.9675
rfingers 7.12502
rthumb 28.42 -374.895
lclavicle 1.59028e-014 -1.90833e-014
lhumerus 44.9171 4.03528 2.10671
lradius 23.9988
lwrist -10.9523
lhand -12.3862 -702.635
lfingers 7.12502
lthumb 13.6848 46.8948
rfemur -15.775 3.80489 20.4849
rtibia 39.7758
rfoot -0.57416 3.88403
rtoes -7.52705
lfemur -10.2951 -7.68822 -22.1068
ltibia 32.9301
lfoot -9.55737 16.2687
ltoes 7.1838
1691
root 6.04436 11.5333 20.8497 81.2995 -5.80053 -7.57526
lowerback 3.79346 -8.54376 -10.3725
upperback -6.15951 -12.4321 0.698369
thorax -6.36059 -5.64645 7.30846
lowerneck -14.4091 5.77275 -11.4419
upperneck 7.92956 8.34018 17.1179
head 3.47042 4.85862 7.78508
rclavicle -1.43125e-013 -4.13472e-014
rhumerus 319.606 11.8571 341.173
rradius 134.649
rwrist -10.008
rhand 4.04741 12.3325
rfingers 7.12502
rthumb 29.461 -375.351
lclavicle -1.43125e-013 -4.13472e-014
lhumerus 43.4801 3.30472 1.95082
lradius 23.9981
lwrist -11.1285
lhand -12.1009 -702.673
lfingers 7.12502
lthumb 13.9597 46.8388
rfemur -15.7611 3.85536 20.4582
rtibia 39.8442
rfoot -0.480621 3.97748
rtoes -7.65584
lfemur -10.1782 -7.96327 -22.1668
ltibia 32.8501
lfoot -9.72725 16.4543
ltoes 7.45694
1692
root 6.04663 11.5335 20.8508 81.2607 -5.83549 -7.5935
lowerback 3.93521 -8.73863 -10.5699
upperback -6.21227 -12.7193 0.934339
thorax -6.35409 -5.77338 7.68523
lowerneck -14.4178 6.04545 -11.7222
upperneck 8.04663 8.75526 17.2144
head 3.42462 5.06171 7.8768
rclavicle 1.11319e-013 3.18055e-015
rhumerus 320.895 10.8019 342.806
rradius 135.397
rwrist -11.868
rhand 5.15826 11.6164
rfingers 7.12502
rthumb 30.5209 -375.875
lclavicle 1.11319e-013 3.18055e-015
lhumerus 41.9815 2.64603 1.98153
lradius 24.0029
lwrist -11.565
lhand -11.7043 -702.839
lfingers 7.12502
lthumb 14.342 46.6457
rfemur -15.7539 3.89959 20.427
rtibia 39.9081
rfoot -0.408506 4.04621
rtoes -7.7351
lfemur -10.0651 -8.21139 -22.228
ltibia 32.7726
lfoot -9.8629 16.629
ltoes 7.67295
1693
root 6.049 11.5337 20.8521 81.236 -5.87147 -7.62658
lowerback 4.07079 -8.93569 -10.7669
upperback -6.27642 -13.0101 1.18023
thorax -6.34945 -5.90189 8.07205
lowerneck -14.4106 6.32865 -11.988
upperneck 8.18819 9.18016 17.2829
head 3.38221 5.26746 7.9558
rclavicle -9.85972e-014 1.59028e-014
rhumerus 322.26 9.63307 344.495
rradius 136.063
rwrist -13.901
rhand 6.21822 10.8276
rfingers 7.12502
rthumb 31.5312 -376.471
lclavicle -9.85972e-014 1.59028e-014
lhumerus 40.4252 2.00997 2.11539
lradius 24.0335
lwrist -12.1593
lhand -11.2283 -703.109
lfingers 7.12502
lthumb 14.8006 46.3426
rfemur -15.7614 3.93567 20.3934
rtibia 39.9644
rfoot -0.352495 4.09184
rtoes -7.76977
lfemur -9.96277 -8.42514 -22.2861
ltibia 32.6974
lfoot -9.96581 16.789
ltoes 7.86214
